<svg width="1920" height="1080" viewBox="0 0 1920 1080" xmlns="http://www.w3.org/2000/svg">
  <!-- Among Us Space Background -->
  <defs>
    <radialGradient id="spaceGradient" cx="50%" cy="50%" r="70%">
      <stop offset="0%" style="stop-color:#1A1A2E;stop-opacity:1" />
      <stop offset="50%" style="stop-color:#16213E;stop-opacity:1" />
      <stop offset="100%" style="stop-color:#0F0F23;stop-opacity:1" />
    </radialGradient>
    <radialGradient id="starGlow" cx="50%" cy="50%" r="50%">
      <stop offset="0%" style="stop-color:#FFFFFF;stop-opacity:1" />
      <stop offset="100%" style="stop-color:#FFFFFF;stop-opacity:0" />
    </radialGradient>
  </defs>
  
  <!-- Background -->
  <rect width="1920" height="1080" fill="url(#spaceGradient)"/>
  
  <!-- Stars -->
  <circle cx="200" cy="150" r="2" fill="#FFFFFF" opacity="0.8"/>
  <circle cx="400" cy="200" r="1.5" fill="#FFFFFF" opacity="0.6"/>
  <circle cx="600" cy="100" r="2.5" fill="#FFFFFF" opacity="0.9"/>
  <circle cx="800" cy="250" r="1" fill="#FFFFFF" opacity="0.5"/>
  <circle cx="1000" cy="180" r="2" fill="#FFFFFF" opacity="0.7"/>
  <circle cx="1200" cy="120" r="1.5" fill="#FFFFFF" opacity="0.6"/>
  <circle cx="1400" cy="200" r="2" fill="#FFFFFF" opacity="0.8"/>
  <circle cx="1600" cy="160" r="1" fill="#FFFFFF" opacity="0.5"/>
  <circle cx="1800" cy="220" r="2.5" fill="#FFFFFF" opacity="0.9"/>
  
  <circle cx="300" cy="400" r="1.5" fill="#FFFFFF" opacity="0.6"/>
  <circle cx="500" cy="350" r="2" fill="#FFFFFF" opacity="0.8"/>
  <circle cx="700" cy="450" r="1" fill="#FFFFFF" opacity="0.5"/>
  <circle cx="900" cy="380" r="2.5" fill="#FFFFFF" opacity="0.9"/>
  <circle cx="1100" cy="420" r="1.5" fill="#FFFFFF" opacity="0.7"/>
  <circle cx="1300" cy="360" r="2" fill="#FFFFFF" opacity="0.8"/>
  <circle cx="1500" cy="480" r="1" fill="#FFFFFF" opacity="0.5"/>
  <circle cx="1700" cy="400" r="2.5" fill="#FFFFFF" opacity="0.9"/>
  
  <circle cx="250" cy="600" r="2" fill="#FFFFFF" opacity="0.8"/>
  <circle cx="450" cy="650" r="1.5" fill="#FFFFFF" opacity="0.6"/>
  <circle cx="650" cy="580" r="2.5" fill="#FFFFFF" opacity="0.9"/>
  <circle cx="850" cy="620" r="1" fill="#FFFFFF" opacity="0.5"/>
  <circle cx="1050" cy="680" r="2" fill="#FFFFFF" opacity="0.7"/>
  <circle cx="1250" cy="600" r="1.5" fill="#FFFFFF" opacity="0.6"/>
  <circle cx="1450" cy="640" r="2.5" fill="#FFFFFF" opacity="0.9"/>
  <circle cx="1650" cy="580" r="1" fill="#FFFFFF" opacity="0.5"/>
  <circle cx="1850" cy="660" r="2" fill="#FFFFFF" opacity="0.8"/>
  
  <circle cx="350" cy="800" r="1.5" fill="#FFFFFF" opacity="0.6"/>
  <circle cx="550" cy="750" r="2" fill="#FFFFFF" opacity="0.8"/>
  <circle cx="750" cy="850" r="1" fill="#FFFFFF" opacity="0.5"/>
  <circle cx="950" cy="780" r="2.5" fill="#FFFFFF" opacity="0.9"/>
  <circle cx="1150" cy="820" r="1.5" fill="#FFFFFF" opacity="0.7"/>
  <circle cx="1350" cy="760" r="2" fill="#FFFFFF" opacity="0.8"/>
  <circle cx="1550" cy="880" r="1" fill="#FFFFFF" opacity="0.5"/>
  <circle cx="1750" cy="800" r="2.5" fill="#FFFFFF" opacity="0.9"/>
  
  <!-- Space station/ship silhouette -->
  <rect x="0" y="900" width="1920" height="180" fill="#0A0A0A" opacity="0.8"/>
  <rect x="100" y="920" width="200" height="60" fill="#1A1A1A" opacity="0.6"/>
  <rect x="400" y="940" width="150" height="40" fill="#1A1A1A" opacity="0.6"/>
  <rect x="700" y="930" width="180" height="50" fill="#1A1A1A" opacity="0.6"/>
  <rect x="1000" y="950" width="120" height="30" fill="#1A1A1A" opacity="0.6"/>
  <rect x="1300" y="920" width="200" height="60" fill="#1A1A1A" opacity="0.6"/>
  <rect x="1600" y="940" width="150" height="40" fill="#1A1A1A" opacity="0.6"/>
</svg>
